<?xml version="1.0" encoding="UTF-8" standalone="no"?>
<!DOCTYPE svg PUBLIC "-//W3C//DTD SVG 1.1//EN" "http://www.w3.org/Graphics/SVG/1.1/DTD/svg11.dtd">
<svg width="100%" height="100%" viewBox="0 0 1730 1947" version="1.1" xmlns="http://www.w3.org/2000/svg" xmlns:xlink="http://www.w3.org/1999/xlink" xml:space="preserve" xmlns:serif="http://www.serif.com/" style="fill-rule:evenodd;clip-rule:evenodd;stroke-linejoin:round;stroke-miterlimit:2;">
    <g transform="matrix(1,0,0,1,-216,-101.059)">
        <g id="shape-5" serif:id="shape 5" transform="matrix(1,0,0,1,0,-112.941)">
            <g id="Watch-5" serif:id="Watch 5">
                <path d="M1545.23,2024.01C1410.9,2110.08 1251.24,2160 1080,2160C603.145,2160 216,1772.86 216,1296C216,819.145 603.145,432 1080,432C1556.86,432 1944,819.145 1944,1296C1944,1466.9 1894.27,1626.29 1808.51,1760.45L1650.82,1602.77C1700.06,1511.43 1728,1406.95 1728,1296C1728,938.359 1437.64,648 1080,648C722.359,648 432,938.359 432,1296C432,1653.64 722.359,1944 1080,1944C1191.29,1944 1296.06,1915.88 1387.6,1866.38L1545.23,2024.01Z" style="fill:url(#_Linear1);"/>
                <g transform="matrix(1,0,0,0.546926,0,96.9579)">
                    <path d="M1312,368.5C1312,283.229 1274.14,214 1227.5,214L932.5,214C885.863,214 848,283.229 848,368.5L848,677.5C848,762.771 885.863,832 932.5,832L1227.5,832C1274.14,832 1312,762.771 1312,677.5L1312,368.5Z" style="fill:url(#_Linear2);"/>
                </g>
                <g transform="matrix(0.691417,0.691417,-0.555592,0.555592,996.195,-872.832)">
                    <path d="M1771.2,677.4C1771.2,637.331 1745.06,604.8 1712.86,604.8L1545.14,604.8C1512.94,604.8 1486.8,637.331 1486.8,677.4L1486.8,822.6C1486.8,862.669 1512.94,895.2 1545.14,895.2L1712.86,895.2C1745.06,895.2 1771.2,862.669 1771.2,822.6L1771.2,677.4Z" style="fill:url(#_Linear3);"/>
                </g>
                <g transform="matrix(0.952381,0,0,1,40,116)">
                    <path d="M1155,666C1155,649.443 1140.88,636 1123.5,636L1060.5,636C1043.12,636 1029,649.443 1029,666L1029,834C1029,850.557 1043.12,864 1060.5,864L1123.5,864C1140.88,864 1155,850.557 1155,834L1155,666Z" style="fill:url(#_Linear4);"/>
                </g>
            </g>
            <g id="Pencil-6" serif:id="Pencil 6" transform="matrix(1.08509,-1.08509,0.787784,0.787784,-194.131,2365.37)">
                <path d="M1000,984.36L1000,237.967L1160,237.967L1160,982.649L1079.87,1041.51L1000,984.36ZM1159.24,1021.11L1093.54,1208.72C1091.57,1214.34 1086.26,1218.1 1080.31,1218.1C1074.35,1218.09 1069.05,1214.31 1067.1,1208.69L1002.99,1024.09L1073.33,1074.94C1077.66,1076.83 1082.59,1076.8 1086.88,1074.84L1159.24,1021.11ZM1000,201.967L1000,72.491C1000,50.415 1017.92,32.491 1040,32.491L1120,32.491C1142.08,32.491 1160,50.415 1160,72.491L1160,201.967L1000,201.967Z" style="fill:url(#_Linear5);"/>
            </g>
        </g>
    </g>
    <defs>
        <linearGradient id="_Linear1" x1="0" y1="0" x2="1" y2="0" gradientUnits="userSpaceOnUse" gradientTransform="matrix(1.19158e-13,-1946,1946,1.19158e-13,1080.73,2160)"><stop offset="0" style="stop-color:rgb(123,255,204);stop-opacity:1"/><stop offset="1" style="stop-color:rgb(183,255,227);stop-opacity:1"/></linearGradient>
        <linearGradient id="_Linear2" x1="0" y1="0" x2="1" y2="0" gradientUnits="userSpaceOnUse" gradientTransform="matrix(1.19158e-13,-3558.07,1946,2.17869e-13,1080.73,3772.07)"><stop offset="0" style="stop-color:rgb(123,255,204);stop-opacity:1"/><stop offset="1" style="stop-color:rgb(183,255,227);stop-opacity:1"/></linearGradient>
        <linearGradient id="_Linear3" x1="0" y1="0" x2="1" y2="0" gradientUnits="userSpaceOnUse" gradientTransform="matrix(-1407.25,-1751.29,1407.25,-1751.29,2254.33,2653.3)"><stop offset="0" style="stop-color:rgb(123,255,204);stop-opacity:1"/><stop offset="1" style="stop-color:rgb(183,255,227);stop-opacity:1"/></linearGradient>
        <linearGradient id="_Linear4" x1="0" y1="0" x2="1" y2="0" gradientUnits="userSpaceOnUse" gradientTransform="matrix(1.25116e-13,-1946,2043.3,1.19158e-13,1092.77,2044)"><stop offset="0" style="stop-color:rgb(123,255,204);stop-opacity:1"/><stop offset="1" style="stop-color:rgb(183,255,227);stop-opacity:1"/></linearGradient>
        <linearGradient id="_Linear5" x1="0" y1="0" x2="1" y2="0" gradientUnits="userSpaceOnUse" gradientTransform="matrix(896.701,-1235.11,896.701,1235.11,682.079,678.795)"><stop offset="0" style="stop-color:rgb(123,255,204);stop-opacity:1"/><stop offset="1" style="stop-color:rgb(183,255,227);stop-opacity:1"/></linearGradient>
    </defs>
</svg>
