<?xml version="1.0" encoding="UTF-8" standalone="no"?>
<!DOCTYPE svg PUBLIC "-//W3C//DTD SVG 1.1//EN" "http://www.w3.org/Graphics/SVG/1.1/DTD/svg11.dtd">
<svg width="100%" height="100%" viewBox="0 0 2160 664" version="1.1" xmlns="http://www.w3.org/2000/svg" xmlns:xlink="http://www.w3.org/1999/xlink" xml:space="preserve" xmlns:serif="http://www.serif.com/" style="fill-rule:evenodd;clip-rule:evenodd;stroke-linejoin:round;stroke-miterlimit:2;">
    <g transform="matrix(1,0,0,1,0,-622)">
        <g id="_-with-curves-" serif:id="(with curves)" transform="matrix(1.00193,0,0,1.00193,0,-1.19807)">
            <g transform="matrix(0.92961,0,0,0.92961,518.517,387.238)">
                <path d="M260.407,694.688L309.517,694.688L261.539,921L212.429,921L219.671,886.374C189.194,909.307 163.847,920.774 143.63,920.774C118.886,920.774 101.159,912.476 90.446,895.879C79.282,878.68 76.038,859.141 80.715,837.264L111.041,694.688L160.377,694.688L133.672,820.065C129.749,838.622 130.353,853.182 135.483,863.743C140.311,873.55 149.891,878.453 164.224,878.453C166.035,878.453 168.072,878.378 170.335,878.227C172.598,878.076 174.861,877.774 177.124,877.322C185.724,875.511 194.324,872.079 202.924,867.025C211.524,861.97 219.897,855.369 228.044,847.222L260.407,694.688Z" style="fill:url(#_Linear1);fill-rule:nonzero;"/>
                <path d="M327.395,921L375.374,694.688L423.352,694.688L375.374,921L327.395,921Z" style="fill:url(#_Linear2);fill-rule:nonzero;"/>
                <path d="M451.641,795.623C454.809,780.837 460.429,767.409 468.501,755.339C476.573,743.269 487.247,732.633 500.524,723.429C527.38,704.419 556.046,694.914 586.523,694.914C624.694,695.367 651.097,714.905 665.732,753.529L654.077,753.529C650.984,753.529 648.117,753.567 645.477,753.642C642.837,753.718 640.083,753.755 637.217,753.755L626.806,753.755C613.831,739.12 597.688,731.803 578.376,731.803C558.913,731.803 540.581,739.422 523.382,754.661C506.182,769.446 495.394,787.174 491.019,807.844C486.493,828.966 489.209,846.77 499.166,861.254C509.124,876.492 524.74,884.111 546.013,884.111C555.518,884.111 565.136,882.225 574.868,878.453C584.599,874.681 594.217,869.175 603.723,861.933C610.512,861.933 616.962,861.895 623.072,861.819C629.183,861.744 635.331,861.631 641.517,861.48C626.127,882.301 609.908,897.501 592.86,907.082C575.811,916.662 557.63,921.302 538.318,921C507.842,921 483.249,911.495 464.541,892.485C455.186,883.281 449.038,872.645 446.096,860.575C443.154,848.505 443.267,835.077 446.436,820.291L451.641,795.623Z" style="fill:url(#_Linear3);fill-rule:nonzero;"/>
                <path d="M749.468,572.706C754.446,572.706 759.086,572.743 763.386,572.819C767.686,572.894 771.835,572.932 775.833,572.932L800.614,572.932L753.994,792.907L874.618,692.425L932.328,692.425L825.056,795.397C838.333,815.463 851.874,836.246 865.679,857.746C879.484,879.245 893.1,900.33 906.528,921L836.598,921L750.825,806.26L727.968,921L673.879,921L749.468,572.706Z" style="fill:url(#_Linear4);fill-rule:nonzero;"/>
                <path d="M987.774,772.539L997.958,725.014L1160.68,725.014C1195.98,724.259 1217.48,707.889 1225.18,675.904C1230.61,646.332 1216.12,630.868 1181.72,629.51C1154.27,629.51 1127.03,629.548 1100.03,629.623C1073.02,629.698 1045.79,629.736 1018.33,629.736L1028.51,581.532L1175.39,581.532C1252.63,581.532 1284.62,612.763 1271.34,675.225C1266.37,698.912 1256.41,718.526 1241.47,734.066C1226.53,749.606 1206.39,761.148 1181.05,768.692L1235.81,921L1175.61,921L1121.3,772.766L987.774,772.539Z" style="fill:url(#_Linear5);fill-rule:nonzero;"/>
                <path d="M1286.73,807.844C1290.2,791.097 1296.01,775.934 1304.16,762.355C1312.31,748.776 1322.72,736.782 1335.39,726.372C1360.89,705.4 1390.38,694.914 1423.88,694.914C1440.78,694.914 1455.15,697.517 1466.99,702.722C1478.83,707.927 1488.6,715.735 1496.3,726.145C1511.23,746.664 1516.06,769.446 1510.78,794.491L1507.84,809.202L1337.43,809.202C1332.9,841.338 1335.77,861.933 1346.03,870.985C1355.68,879.736 1368.2,884.111 1383.59,884.111C1395.51,884.111 1406.3,882.565 1415.96,879.472C1425.61,876.379 1434.14,871.438 1441.53,864.648L1489.74,864.648C1475.1,883.357 1458.24,897.501 1439.15,907.082C1420.07,916.662 1398.98,921.302 1375.9,921C1342.41,921 1317.36,910.514 1300.76,889.543C1284.17,868.42 1279.49,841.187 1286.73,807.844ZM1415.96,731.803C1400.57,731.803 1386.24,736.103 1372.96,744.703C1365.57,749.38 1359.76,754.547 1355.53,760.205C1351.31,765.863 1348.37,772.313 1346.71,779.555L1464.84,779.555C1468.01,765.674 1464.24,754.057 1453.53,744.703C1443.72,736.103 1431.19,731.803 1415.96,731.803Z" style="fill:url(#_Linear6);fill-rule:nonzero;"/>
                <path d="M1547.9,921L1589.54,724.335L1563.29,724.335L1570.98,688.351L1597.23,688.351L1606.29,645.578C1611.11,623.55 1622.05,605.898 1639.1,592.621C1656.6,578.741 1678.25,571.8 1704.05,571.8C1705.41,571.649 1706.62,571.574 1707.67,571.574L1710.62,571.574C1739.28,571.574 1756.18,586.737 1761.31,617.063C1757.69,617.063 1754.56,617.1 1751.92,617.176C1749.28,617.251 1746.79,617.327 1744.45,617.402C1742.11,617.478 1739.77,617.553 1737.43,617.628C1735.1,617.704 1732.42,617.742 1729.4,617.742C1726.68,615.026 1723.14,613.065 1718.76,611.858C1714.39,610.651 1709.03,610.047 1702.69,610.047C1696.81,610.047 1691.3,610.839 1686.17,612.423C1681.04,614.007 1676.37,616.572 1672.14,620.118C1667.92,623.663 1664.26,628.341 1661.17,634.149C1658.07,639.958 1655.62,647.087 1653.81,655.536L1646.8,688.351L1655.96,688.351C1659.36,688.351 1662.9,688.313 1666.6,688.238C1670.29,688.162 1674.03,688.125 1677.8,688.125L1688.44,688.125L1680.74,724.108L1639.1,724.335L1597.46,921L1547.9,921Z" style="fill:url(#_Linear7);fill-rule:nonzero;"/>
            </g>
            <g id="shape-4" serif:id="shape 4" transform="matrix(0.340072,0,0,0.340072,-73.4556,549.224)">
                <g id="Watch-5" serif:id="Watch 5">
                    <path d="M1545.23,2024.01C1410.9,2110.08 1251.24,2160 1080,2160C603.145,2160 216,1772.86 216,1296C216,819.145 603.145,432 1080,432C1556.86,432 1944,819.145 1944,1296C1944,1466.9 1894.27,1626.29 1808.51,1760.45L1650.82,1602.77C1700.06,1511.43 1728,1406.95 1728,1296C1728,938.359 1437.64,648 1080,648C722.359,648 432,938.359 432,1296C432,1653.64 722.359,1944 1080,1944C1191.29,1944 1296.06,1915.88 1387.6,1866.38L1545.23,2024.01Z" style="fill:url(#_Linear8);"/>
                    <g transform="matrix(1,0,0,0.546926,0,96.9579)">
                        <path d="M1312,368.5C1312,283.229 1274.14,214 1227.5,214L932.5,214C885.863,214 848,283.229 848,368.5L848,677.5C848,762.771 885.863,832 932.5,832L1227.5,832C1274.14,832 1312,762.771 1312,677.5L1312,368.5Z" style="fill:url(#_Linear9);"/>
                    </g>
                    <g transform="matrix(0.691417,0.691417,-0.555592,0.555592,996.195,-872.832)">
                        <path d="M1771.2,677.4C1771.2,637.331 1745.06,604.8 1712.86,604.8L1545.14,604.8C1512.94,604.8 1486.8,637.331 1486.8,677.4L1486.8,822.6C1486.8,862.669 1512.94,895.2 1545.14,895.2L1712.86,895.2C1745.06,895.2 1771.2,862.669 1771.2,822.6L1771.2,677.4Z" style="fill:url(#_Linear10);"/>
                    </g>
                    <g transform="matrix(0.952381,0,0,1,40,116)">
                        <path d="M1155,666C1155,649.443 1140.88,636 1123.5,636L1060.5,636C1043.12,636 1029,649.443 1029,666L1029,834C1029,850.557 1043.12,864 1060.5,864L1123.5,864C1140.88,864 1155,850.557 1155,834L1155,666Z" style="fill:url(#_Linear11);"/>
                    </g>
                </g>
                <g id="Pencil-6" serif:id="Pencil 6" transform="matrix(1.08509,-1.08509,0.787784,0.787784,-194.131,2365.37)">
                    <path d="M1000,984.36L1000,237.967L1160,237.967L1160,982.649L1079.87,1041.51L1000,984.36ZM1159.24,1021.11L1093.54,1208.72C1091.57,1214.34 1086.26,1218.1 1080.31,1218.1C1074.35,1218.09 1069.05,1214.31 1067.1,1208.69L1002.99,1024.09L1073.33,1074.94C1077.66,1076.83 1082.59,1076.8 1086.88,1074.84L1159.24,1021.11ZM1000,201.967L1000,72.491C1000,50.415 1017.92,32.491 1040,32.491L1120,32.491C1142.08,32.491 1160,50.415 1160,72.491L1160,201.967L1000,201.967Z" style="fill:url(#_Linear12);"/>
                </g>
            </g>
        </g>
    </g>
    <defs>
        <linearGradient id="_Linear1" x1="0" y1="0" x2="1" y2="0" gradientUnits="userSpaceOnUse" gradientTransform="matrix(2.1397e-14,-349.44,72.5683,4.44353e-15,792.25,921.014)"><stop offset="0" style="stop-color:rgb(123,255,204);stop-opacity:1"/><stop offset="1" style="stop-color:rgb(183,255,227);stop-opacity:1"/></linearGradient>
        <linearGradient id="_Linear2" x1="0" y1="0" x2="1" y2="0" gradientUnits="userSpaceOnUse" gradientTransform="matrix(2.1397e-14,-349.44,72.5683,4.44353e-15,792.25,921.014)"><stop offset="0" style="stop-color:rgb(123,255,204);stop-opacity:1"/><stop offset="1" style="stop-color:rgb(183,255,227);stop-opacity:1"/></linearGradient>
        <linearGradient id="_Linear3" x1="0" y1="0" x2="1" y2="0" gradientUnits="userSpaceOnUse" gradientTransform="matrix(2.1397e-14,-349.44,72.5683,4.44353e-15,792.25,921.014)"><stop offset="0" style="stop-color:rgb(123,255,204);stop-opacity:1"/><stop offset="1" style="stop-color:rgb(183,255,227);stop-opacity:1"/></linearGradient>
        <linearGradient id="_Linear4" x1="0" y1="0" x2="1" y2="0" gradientUnits="userSpaceOnUse" gradientTransform="matrix(2.1397e-14,-349.44,72.5683,4.44353e-15,792.25,921.014)"><stop offset="0" style="stop-color:rgb(123,255,204);stop-opacity:1"/><stop offset="1" style="stop-color:rgb(183,255,227);stop-opacity:1"/></linearGradient>
        <linearGradient id="_Linear5" x1="0" y1="0" x2="1" y2="0" gradientUnits="userSpaceOnUse" gradientTransform="matrix(2.1397e-14,-349.44,72.5683,4.44353e-15,792.25,921.014)"><stop offset="0" style="stop-color:rgb(123,255,204);stop-opacity:1"/><stop offset="1" style="stop-color:rgb(183,255,227);stop-opacity:1"/></linearGradient>
        <linearGradient id="_Linear6" x1="0" y1="0" x2="1" y2="0" gradientUnits="userSpaceOnUse" gradientTransform="matrix(2.1397e-14,-349.44,72.5683,4.44353e-15,792.25,921.014)"><stop offset="0" style="stop-color:rgb(123,255,204);stop-opacity:1"/><stop offset="1" style="stop-color:rgb(183,255,227);stop-opacity:1"/></linearGradient>
        <linearGradient id="_Linear7" x1="0" y1="0" x2="1" y2="0" gradientUnits="userSpaceOnUse" gradientTransform="matrix(2.1397e-14,-349.44,72.5683,4.44353e-15,792.25,921.014)"><stop offset="0" style="stop-color:rgb(123,255,204);stop-opacity:1"/><stop offset="1" style="stop-color:rgb(183,255,227);stop-opacity:1"/></linearGradient>
        <linearGradient id="_Linear8" x1="0" y1="0" x2="1" y2="0" gradientUnits="userSpaceOnUse" gradientTransform="matrix(1.19158e-13,-1946,1946,1.19158e-13,1080.73,2160)"><stop offset="0" style="stop-color:rgb(123,255,204);stop-opacity:1"/><stop offset="1" style="stop-color:rgb(183,255,227);stop-opacity:1"/></linearGradient>
        <linearGradient id="_Linear9" x1="0" y1="0" x2="1" y2="0" gradientUnits="userSpaceOnUse" gradientTransform="matrix(1.19158e-13,-3558.07,1946,2.17869e-13,1080.73,3772.07)"><stop offset="0" style="stop-color:rgb(123,255,204);stop-opacity:1"/><stop offset="1" style="stop-color:rgb(183,255,227);stop-opacity:1"/></linearGradient>
        <linearGradient id="_Linear10" x1="0" y1="0" x2="1" y2="0" gradientUnits="userSpaceOnUse" gradientTransform="matrix(-1407.25,-1751.29,1407.25,-1751.29,2254.33,2653.3)"><stop offset="0" style="stop-color:rgb(123,255,204);stop-opacity:1"/><stop offset="1" style="stop-color:rgb(183,255,227);stop-opacity:1"/></linearGradient>
        <linearGradient id="_Linear11" x1="0" y1="0" x2="1" y2="0" gradientUnits="userSpaceOnUse" gradientTransform="matrix(1.25116e-13,-1946,2043.3,1.19158e-13,1092.77,2044)"><stop offset="0" style="stop-color:rgb(123,255,204);stop-opacity:1"/><stop offset="1" style="stop-color:rgb(183,255,227);stop-opacity:1"/></linearGradient>
        <linearGradient id="_Linear12" x1="0" y1="0" x2="1" y2="0" gradientUnits="userSpaceOnUse" gradientTransform="matrix(896.701,-1235.11,896.701,1235.11,682.079,678.795)"><stop offset="0" style="stop-color:rgb(123,255,204);stop-opacity:1"/><stop offset="1" style="stop-color:rgb(183,255,227);stop-opacity:1"/></linearGradient>
    </defs>
</svg>
